<svg width="100" height="100" viewBox="0 0 100 100" fill="none" xmlns="http://www.w3.org/2000/svg">
<path d="M48.681 49.7542C48.4599 36.2306 37.6578 25.3352 24.3571 25.3352C10.9082 25.3352 0 36.4473 0 50.1676C0 63.8879 10.9082 75 24.3504 75H48.692V49.7452L48.681 49.7542ZM24.4168 62.8956C21.958 62.8956 19.5545 62.1587 17.5101 60.778C15.4657 59.3974 13.8723 57.435 12.9314 55.1391C11.9904 52.8432 11.7442 50.3168 12.2239 47.8795C12.7036 45.4422 13.8876 43.2033 15.6262 41.4461C17.3648 39.6889 19.58 38.4922 21.9915 38.0074C24.403 37.5226 26.9026 37.7714 29.1742 38.7224C31.4458 39.6734 33.3874 41.2839 34.7534 43.3501C36.1194 45.4164 36.8485 47.8457 36.8485 50.3308C36.8479 53.663 35.538 56.8586 33.2067 59.2148C30.8754 61.571 27.7137 62.895 24.4168 62.8956Z" fill="#BBCF02"/>
<path d="M100 43.6282H81.5691V25H69.2811V43.6282H50.8502V56.0477H69.2811V74.6759H81.5691V56.0477H100V43.6282Z" fill="#BBCF02"/>
</svg>
